<?xml version="1.0" encoding="utf-8"?>
<!-- Generator: Adobe Illustrator 13.0.0, SVG Export Plug-In . SVG Version: 6.00 Build 14948)  -->
<!DOCTYPE svg PUBLIC "-//W3C//DTD SVG 1.1//EN" "http://www.w3.org/Graphics/SVG/1.1/DTD/svg11.dtd">
<svg version="1.1" id="Layer_1" xmlns="http://www.w3.org/2000/svg" xmlns:xlink="http://www.w3.org/1999/xlink" x="0px" y="0px"
	 width="119px" height="24px" viewBox="0 0 119 24" enable-background="new 0 0 119 24" xml:space="preserve">
<g>
	<path d="M22.234,20.023c-0.018,0.054-0.36,0.648-0.918,1.261c-0.828,0.918-1.765,1.404-2.683,1.422h-0.072
		c-1.332,0-2.539-0.882-3.601-2.646c-1.062-1.747-2.539-4.682-4.393-8.715H6.857c-0.504,0-0.9-0.396-0.9-0.9
		c0-0.485,0.396-0.9,0.9-0.9h2.898L9.594,9.202c-0.9-1.998-1.71-3.871-2.287-5.186L2.77,14.46c-0.198,0.45-0.738,0.666-1.188,0.468
		c-0.468-0.198-0.666-0.738-0.468-1.188L6.497,1.388c0.144-0.324,0.468-0.54,0.828-0.54c0.36,0,0.685,0.216,0.829,0.558
		c0.054,0.126,5.456,12.964,8.336,17.717c0.918,1.494,1.638,1.801,2.088,1.783c0.541-0.019,1.062-0.45,1.405-0.829
		c0.414-0.45,0.666-0.918,0.684-0.918c0.234-0.432,0.774-0.594,1.206-0.36C22.324,19.033,22.486,19.592,22.234,20.023z"/>
	<path d="M24.705,14.982c-0.414,0-0.792-0.307-0.882-0.738c-0.216-1.099-0.558-1.98-1.026-2.647
		c-0.342-0.504-0.774-0.864-1.26-1.098c-0.378-0.198-0.756-0.271-1.044-0.288c-0.234,0-0.486,0.018-0.738,0.018
		c-0.45,0-0.846-0.36-0.882-0.828c-0.054-0.45,0.27-0.883,0.72-0.954c0.072-0.019,0.415-0.09,0.918-0.055
		c0.937-0.054,1.674-0.252,2.215-0.558c0.792-0.45,1.17-1.152,1.17-2.215c0-0.72-0.144-1.314-0.396-1.782
		C23.3,3.495,23.012,3.225,22.67,3.008c-0.648-0.36-1.314-0.378-1.368-0.378h-4.447v11.452c0,0.486-0.396,0.9-0.9,0.9
		c-0.486,0-0.9-0.414-0.9-0.9V1.73c0-0.504,0.414-0.9,0.9-0.9h5.348c0.072,0,0.504,0,1.062,0.144
		c0.792,0.198,1.495,0.576,2.035,1.117c0.396,0.396,0.72,0.882,0.937,1.44c0.234,0.612,0.36,1.314,0.36,2.088
		c0,1.692-0.72,3.007-2.071,3.781c-0.09,0.054-0.18,0.09-0.288,0.144c0.324,0.271,0.612,0.576,0.882,0.937
		c0.648,0.883,1.099,2.035,1.369,3.421c0.09,0.486-0.216,0.973-0.702,1.062C24.812,14.964,24.759,14.982,24.705,14.982z"/>
	<path d="M30.407,15.198c-0.234,0-0.756-0.019-1.35-0.162c-1.099-0.271-1.945-0.864-2.449-1.692
		c-0.252-0.433-0.108-0.973,0.324-1.242c0.415-0.253,0.973-0.108,1.225,0.323c0.252,0.396,0.684,0.685,1.296,0.847
		c0.522,0.145,0.972,0.126,1.008,0.126h0.036c0.828,0,1.44-0.198,1.818-0.594c0.504-0.559,0.468-1.351,0.468-1.369v-0.071V1.748
		c0-0.504,0.396-0.9,0.9-0.9c0.486,0,0.9,0.396,0.9,0.9v9.597c0,0.288,0.018,1.621-0.954,2.665c-0.342,0.378-0.774,0.666-1.26,0.864
		c-0.541,0.216-1.17,0.324-1.854,0.324H30.407z"/>
	<path d="M36.272,15c-0.18,0-0.378-0.054-0.54-0.18c-0.342-0.252-0.468-0.721-0.27-1.117l5.996-12.351
		c0.162-0.306,0.468-0.504,0.811-0.504c0.342,0,0.666,0.198,0.81,0.504l6.032,12.333c0.216,0.433,0.036,0.973-0.414,1.188
		c-0.45,0.234-0.99,0.036-1.207-0.396l-1.404-2.898c-0.936-0.271-1.926-0.307-2.989-0.108c-0.99,0.181-2.017,0.54-3.079,1.099
		c-1.836,0.973-3.115,2.16-3.133,2.179C36.722,14.91,36.488,15,36.272,15z M42.268,3.801l-3.619,7.472
		c0.162-0.09,0.324-0.18,0.504-0.27c1.207-0.648,2.431-1.08,3.601-1.297c0.811-0.144,1.584-0.197,2.341-0.126L42.268,3.801z"/>
	<path d="M61.465,15.054c-0.27,0-0.521-0.126-0.701-0.324L52.066,4.269v9.867c0,0.504-0.396,0.9-0.9,0.9c-0.504,0-0.9-0.396-0.9-0.9
		V1.784c0-0.378,0.234-0.72,0.594-0.846c0.36-0.126,0.756-0.018,0.99,0.27l8.715,10.443V1.802c0-0.504,0.396-0.9,0.899-0.9
		c0.486,0,0.9,0.396,0.9,0.9v12.351c0,0.379-0.252,0.702-0.594,0.847C61.664,15.036,61.556,15.054,61.465,15.054z"/>
	<path d="M69.292,15c-0.36,0-0.685-0.216-0.828-0.559L63.314,1.982c-0.198-0.45,0.018-0.99,0.486-1.17
		c0.449-0.198,0.972,0.018,1.17,0.486l4.321,10.443l3.925-9.435c0.271-0.648,0.793-1.17,1.44-1.404
		c0.036-0.018,0.091-0.036,0.126-0.036c0.234-0.072,0.486-0.126,0.721-0.108c0.486,0,0.882,0.396,0.882,0.9
		c0,0.504-0.396,0.9-0.899,0.9c-0.055,0-0.108,0-0.162,0.018c-0.019,0-0.036,0.018-0.036,0.018
		c-0.181,0.072-0.343,0.216-0.414,0.396L70.12,14.441C69.994,14.784,69.652,15,69.292,15z"/>
	<path d="M82.592,15h-0.019h-4.411c-0.504,0-0.9-0.414-0.9-0.9V1.748c0-0.234,0.09-0.468,0.271-0.63
		c0.161-0.162,0.396-0.27,0.63-0.27h4.465c0.99,0,1.945,0.198,2.827,0.558c0.864,0.36,1.656,0.882,2.323,1.531
		c0.666,0.648,1.188,1.404,1.566,2.25c0.378,0.882,0.576,1.801,0.576,2.754c0,0.937-0.198,1.873-0.595,2.737
		c-0.378,0.847-0.9,1.603-1.584,2.251c-0.667,0.647-1.459,1.152-2.323,1.512C84.518,14.802,83.563,15,82.592,15z M79.062,13.199
		h3.564c0.738-0.018,1.44-0.162,2.107-0.432c0.666-0.271,1.26-0.648,1.764-1.135c0.505-0.486,0.9-1.062,1.188-1.692
		s0.433-1.314,0.433-1.999c0-0.702-0.145-1.386-0.433-2.034c-0.27-0.63-0.666-1.188-1.17-1.674c-1.044-1.026-2.413-1.584-3.89-1.584
		h-3.564V13.199z"/>
	<path d="M92.479,13.649c0,0.757-0.594,1.351-1.332,1.351c-0.757,0-1.351-0.594-1.351-1.351c0-0.738,0.594-1.351,1.351-1.351
		C91.885,12.299,92.479,12.911,92.479,13.649z"/>
	<path d="M105.557,15.054c-0.27,0-0.522-0.126-0.702-0.324L96.158,4.269v9.867c0,0.504-0.396,0.9-0.9,0.9s-0.9-0.396-0.9-0.9V1.784
		c0-0.378,0.234-0.72,0.594-0.846c0.36-0.126,0.757-0.018,0.99,0.27l8.715,10.443V1.802c0-0.504,0.396-0.9,0.9-0.9
		c0.486,0,0.9,0.396,0.9,0.9v12.351c0,0.379-0.252,0.702-0.594,0.847C105.755,15.036,105.646,15.054,105.557,15.054z"/>
	<path d="M117.084,15h-7.851c-0.486,0-0.9-0.396-0.9-0.9V1.748c0-0.504,0.414-0.9,0.9-0.9c0.504,0,0.9,0.396,0.9,0.9v11.451h6.95
		c0.504,0,0.9,0.396,0.9,0.9S117.588,15,117.084,15z"/>
</g>
</svg>
